<?xml version="1.0" encoding="utf-8"?>
<!-- Generator: Adobe Illustrator 26.0.3, SVG Export Plug-In . SVG Version: 6.00 Build 0)  -->
<svg version="1.1" id="레이어_1" xmlns="http://www.w3.org/2000/svg" xmlns:xlink="http://www.w3.org/1999/xlink" width="24" height="24" viewBox="0 0 18 16" style="enable-background:new 0 0 18 16;" xml:space="preserve">
<style type="text/css">
	.st0{fill-rule:evenodd;clip-rule:evenodd;fill:#FFFFFF;}
</style>
<path class="st0" d="M7.71-0.5c-0.39-0.39-1.02-0.39-1.41,0l-6.65,6.65c-0.2,0.2-0.2,0.51,0,0.71c0.2,0.2,0.51,0.2,0.71,0L7,0.21
	l6.65,6.65c0.2,0.2,0.51,0.2,0.71,0c0.2-0.2,0.2-0.51,0-0.71L12,3.79V0.5C12,0.22,11.78,0,11.5,0h-1C10.22,0,10,0.22,10,0.5v1.29
	L7.71-0.5z"/>
<path class="st0" d="M7,1.29l6,6v4.21c0,0.83-0.67,1.5-1.5,1.5h-9C1.67,13,1,12.33,1,11.5V7.29C1,7.29,7,1.29,7,1.29z M7,6.48
	c1.66-1.67,5.82,1.25,0,5.02C1.18,7.74,5.34,4.81,7,6.48z"/>
</svg>
