<?xml version="1.0" encoding="utf-8"?>
<!-- Generator: Adobe Illustrator 26.0.3, SVG Export Plug-In . SVG Version: 6.00 Build 0)  -->
<svg version="1.1" id="레이어_1" width="40" height="40" xmlns="http://www.w3.org/2000/svg" xmlns:xlink="http://www.w3.org/1999/xlink" x="0px"
	 y="0px" viewBox="0 0 32 32" style="enable-background:new 0 0 32 32;" xml:space="preserve">
<style type="text/css">
	.st0{fill:#040000;stroke:#FFFFFF;stroke-width:0.25;stroke-miterlimit:10;}
	.st1{fill:#FFFFFF;}
</style>
<g>
	<rect x="0.83" y="0.82" class="st0" width="31.17" height="31.18"/>
	<rect class="st1" width="31.17" height="31.18"/>
	<g>
		<path d="M7.88,20.4H4.35c-0.72,0-1.44,0.03-2.16,0.08c0-0.03,0.01-0.05,0.01-0.08c0-0.02,0-0.05,0-0.09
			c0.59-0.61,1.19-1.26,1.8-1.95c0.61-0.69,1.15-1.34,1.63-1.94c0.48-0.61,1.02-1.31,1.61-2.11c0.59-0.8,1.12-1.55,1.6-2.25
			c-0.33-0.02-0.72-0.03-1.17-0.04c-0.45-0.01-0.93-0.01-1.46-0.01c-1,0-1.73,0.03-2.18,0.09c-0.45,0.06-0.78,0.17-1,0.35
			c-0.22,0.17-0.43,0.46-0.61,0.86l-0.2-0.1c0.06-0.18,0.11-0.35,0.15-0.52c0.04-0.17,0.08-0.3,0.1-0.39
			c0.02-0.09,0.04-0.15,0.04-0.19l0.14-0.66c0.01-0.05,0.03-0.1,0.04-0.12c0.01-0.03,0.04-0.04,0.07-0.04c0.03,0,0.07,0.02,0.1,0.07
			c0.09,0.15,0.25,0.24,0.49,0.26c0.14,0.02,0.29,0.04,0.45,0.04c0.16,0.01,0.34,0.01,0.53,0.01c0.2,0,0.53,0.01,1,0.01
			c1.71,0,3.41-0.02,5.1-0.07v0.12c-0.33,0.44-0.6,0.79-0.8,1.04c-0.2,0.25-0.44,0.56-0.72,0.91c-0.28,0.35-0.51,0.63-0.67,0.83
			c-0.16,0.2-0.26,0.32-0.3,0.37l-1.53,1.94c-0.07,0.07-0.25,0.3-0.53,0.69c-0.12,0.14-0.25,0.3-0.41,0.49
			c-0.15,0.19-0.32,0.4-0.49,0.62c-0.18,0.22-0.35,0.45-0.52,0.66s-0.36,0.45-0.55,0.68c0.43,0.09,1.04,0.13,1.81,0.13
			c1.11,0,1.9-0.03,2.39-0.1c0.49-0.06,0.95-0.18,1.38-0.36c0.3-0.12,0.52-0.25,0.66-0.4c0.14-0.15,0.27-0.38,0.38-0.69l0.21,0.12
			c-0.08,0.19-0.21,0.53-0.41,1.01c-0.2,0.49-0.33,0.81-0.4,0.97c-0.06,0-0.1,0-0.13-0.01c-0.01-0.08-0.11-0.14-0.32-0.17
			C9.29,20.42,8.75,20.4,7.88,20.4z"/>
		<path d="M11.34,15.98c0-0.83,0.22-1.6,0.66-2.3c0.44-0.7,1.03-1.26,1.76-1.67c0.73-0.41,1.5-0.62,2.32-0.62
			c0.56,0,1.11,0.11,1.65,0.33s1.03,0.53,1.46,0.92c0.43,0.4,0.77,0.88,1.03,1.45c0.26,0.57,0.38,1.19,0.38,1.86
			c0,0.82-0.2,1.58-0.61,2.29c-0.41,0.71-0.97,1.28-1.7,1.7c-0.72,0.42-1.54,0.63-2.46,0.63c-0.7,0-1.33-0.14-1.89-0.41
			s-1.04-0.64-1.43-1.11c-0.4-0.47-0.69-0.96-0.88-1.5C11.43,17.02,11.34,16.5,11.34,15.98z M12.36,15.46c0,0.8,0.19,1.56,0.56,2.27
			c0.37,0.71,0.88,1.28,1.51,1.71c0.63,0.43,1.3,0.64,2,0.64c0.52,0,1.02-0.13,1.5-0.39c0.48-0.26,0.87-0.66,1.17-1.2
			c0.31-0.54,0.46-1.2,0.46-1.99c0-0.63-0.1-1.23-0.3-1.8c-0.2-0.57-0.49-1.06-0.85-1.49c-0.36-0.43-0.78-0.76-1.26-0.99
			c-0.47-0.24-0.97-0.35-1.5-0.35c-0.58,0-1.11,0.14-1.62,0.43c-0.5,0.29-0.91,0.7-1.21,1.25C12.51,14.1,12.36,14.73,12.36,15.46z"
			/>
		<path d="M28.51,18.39h0.21c-0.07,0.48-0.15,0.87-0.24,1.18c-0.09,0.31-0.2,0.61-0.34,0.89c-0.15-0.01-0.36-0.02-0.62-0.03
			c-0.26-0.01-0.63-0.01-1.1-0.01c-0.28,0-0.59,0-0.91-0.01c-0.32-0.01-0.46-0.01-0.42-0.01c-0.3,0-0.64,0-1.04,0.01
			c-0.4,0.01-0.87,0.02-1.43,0.04c-0.56,0.02-0.97,0.03-1.23,0.05l0.01-0.23c0.14-0.03,0.29-0.07,0.43-0.11
			c0.15-0.04,0.25-0.08,0.3-0.13c0.05-0.05,0.09-0.1,0.11-0.17c0.02-0.07,0.05-0.19,0.07-0.36c0.03-0.17,0.05-0.49,0.08-0.94
			c0.03-0.45,0.05-0.97,0.06-1.53c0.02-0.57,0.02-0.92,0.02-1.06l-0.05-2.18c-0.01-0.68-0.04-1.13-0.08-1.37
			c-0.04-0.24-0.11-0.4-0.22-0.47s-0.32-0.15-0.62-0.21c0-0.07,0-0.13,0.01-0.18h4.39c0.49,0,1.24-0.02,2.23-0.05
			c-0.02,0.39-0.06,0.79-0.12,1.18c-0.06,0.39-0.13,0.59-0.23,0.59c-0.11,0-0.17-0.03-0.17-0.1c0-0.03,0.01-0.11,0.03-0.26
			c0.02-0.15,0.03-0.23,0.03-0.25c0-0.33-0.2-0.55-0.6-0.64c-0.4-0.09-0.88-0.14-1.44-0.14c-0.67,0-1.37,0.05-2.1,0.14
			c-0.08,0.76-0.12,1.4-0.12,1.91c0,0.34,0,0.73,0.01,1.16c0,0.44,0.01,0.64,0.01,0.62c0.11,0.01,0.45,0.01,1.01,0.01
			c0.97,0,1.63-0.02,1.99-0.05c0.21-0.02,0.34-0.05,0.41-0.08c0.07-0.03,0.14-0.11,0.2-0.24c0.06-0.13,0.13-0.33,0.21-0.6l0.2,0.01
			c0,0.48,0,0.9,0,1.27c0,0.37-0.01,0.8-0.01,1.29h-0.24c-0.01-0.42-0.08-0.71-0.19-0.88s-0.33-0.27-0.65-0.32
			c-0.32-0.05-0.89-0.07-1.71-0.07c-0.53,0-0.94,0.02-1.23,0.07l-0.03,0.97c-0.03,1.19,0.01,2.1,0.12,2.75
			c0.08,0.02,0.18,0.05,0.29,0.08c0.11,0.03,0.22,0.05,0.32,0.07c0.1,0.02,0.25,0.03,0.44,0.05c0.19,0.02,0.43,0.02,0.72,0.02
			c0.72,0,1.28-0.05,1.69-0.16c0.41-0.11,0.72-0.27,0.94-0.51C28.17,19.17,28.35,18.83,28.51,18.39z M24.41,10.93l1.35-2.44h0.95
			l-1.97,2.44H24.41z"/>
	</g>
	<g>
		<path d="M7.88,20.4H4.35c-0.72,0-1.44,0.03-2.16,0.08c0-0.03,0.01-0.05,0.01-0.08c0-0.02,0-0.05,0-0.09
			c0.59-0.61,1.19-1.26,1.8-1.95c0.61-0.69,1.15-1.34,1.63-1.94c0.48-0.61,1.02-1.31,1.61-2.11c0.59-0.8,1.12-1.55,1.6-2.25
			c-0.33-0.02-0.72-0.03-1.17-0.04c-0.45-0.01-0.93-0.01-1.46-0.01c-1,0-1.73,0.03-2.18,0.09c-0.45,0.06-0.78,0.17-1,0.35
			c-0.22,0.17-0.43,0.46-0.61,0.86l-0.2-0.1c0.06-0.18,0.11-0.35,0.15-0.52c0.04-0.17,0.08-0.3,0.1-0.39
			c0.02-0.09,0.04-0.15,0.04-0.19l0.14-0.66c0.01-0.05,0.03-0.1,0.04-0.12c0.01-0.03,0.04-0.04,0.07-0.04c0.03,0,0.07,0.02,0.1,0.07
			c0.09,0.15,0.25,0.24,0.49,0.26c0.14,0.02,0.29,0.04,0.45,0.04c0.16,0.01,0.34,0.01,0.53,0.01c0.2,0,0.53,0.01,1,0.01
			c1.71,0,3.41-0.02,5.1-0.07v0.12c-0.33,0.44-0.6,0.79-0.8,1.04c-0.2,0.25-0.44,0.56-0.72,0.91c-0.28,0.35-0.51,0.63-0.67,0.83
			c-0.16,0.2-0.26,0.32-0.3,0.37l-1.53,1.94c-0.07,0.07-0.25,0.3-0.53,0.69c-0.12,0.14-0.25,0.3-0.41,0.49
			c-0.15,0.19-0.32,0.4-0.49,0.62c-0.18,0.22-0.35,0.45-0.52,0.66s-0.36,0.45-0.55,0.68c0.43,0.09,1.04,0.13,1.81,0.13
			c1.11,0,1.9-0.03,2.39-0.1c0.49-0.06,0.95-0.18,1.38-0.36c0.3-0.12,0.52-0.25,0.66-0.4c0.14-0.15,0.27-0.38,0.38-0.69l0.21,0.12
			c-0.08,0.19-0.21,0.53-0.41,1.01c-0.2,0.49-0.33,0.81-0.4,0.97c-0.06,0-0.1,0-0.13-0.01c-0.01-0.08-0.11-0.14-0.32-0.17
			C9.29,20.42,8.75,20.4,7.88,20.4z"/>
		<path d="M11.34,15.98c0-0.83,0.22-1.6,0.66-2.3c0.44-0.7,1.03-1.26,1.76-1.67c0.73-0.41,1.5-0.62,2.32-0.62
			c0.56,0,1.11,0.11,1.65,0.33s1.03,0.53,1.46,0.92c0.43,0.4,0.77,0.88,1.03,1.45c0.26,0.57,0.38,1.19,0.38,1.86
			c0,0.82-0.2,1.58-0.61,2.29c-0.41,0.71-0.97,1.28-1.7,1.7c-0.72,0.42-1.54,0.63-2.46,0.63c-0.7,0-1.33-0.14-1.89-0.41
			s-1.04-0.64-1.43-1.11c-0.4-0.47-0.69-0.96-0.88-1.5C11.43,17.02,11.34,16.5,11.34,15.98z M12.36,15.46c0,0.8,0.19,1.56,0.56,2.27
			c0.37,0.71,0.88,1.28,1.51,1.71c0.63,0.43,1.3,0.64,2,0.64c0.52,0,1.02-0.13,1.5-0.39c0.48-0.26,0.87-0.66,1.17-1.2
			c0.31-0.54,0.46-1.2,0.46-1.99c0-0.63-0.1-1.23-0.3-1.8c-0.2-0.57-0.49-1.06-0.85-1.49c-0.36-0.43-0.78-0.76-1.26-0.99
			c-0.47-0.24-0.97-0.35-1.5-0.35c-0.58,0-1.11,0.14-1.62,0.43c-0.5,0.29-0.91,0.7-1.21,1.25C12.51,14.1,12.36,14.73,12.36,15.46z"
			/>
		<path d="M28.51,18.39h0.21c-0.07,0.48-0.15,0.87-0.24,1.18c-0.09,0.31-0.2,0.61-0.34,0.89c-0.15-0.01-0.36-0.02-0.62-0.03
			c-0.26-0.01-0.63-0.01-1.1-0.01c-0.28,0-0.59,0-0.91-0.01c-0.32-0.01-0.46-0.01-0.42-0.01c-0.3,0-0.64,0-1.04,0.01
			c-0.4,0.01-0.87,0.02-1.43,0.04c-0.56,0.02-0.97,0.03-1.23,0.05l0.01-0.23c0.14-0.03,0.29-0.07,0.43-0.11
			c0.15-0.04,0.25-0.08,0.3-0.13c0.05-0.05,0.09-0.1,0.11-0.17c0.02-0.07,0.05-0.19,0.07-0.36c0.03-0.17,0.05-0.49,0.08-0.94
			c0.03-0.45,0.05-0.97,0.06-1.53c0.02-0.57,0.02-0.92,0.02-1.06l-0.05-2.18c-0.01-0.68-0.04-1.13-0.08-1.37
			c-0.04-0.24-0.11-0.4-0.22-0.47s-0.32-0.15-0.62-0.21c0-0.07,0-0.13,0.01-0.18h4.39c0.49,0,1.24-0.02,2.23-0.05
			c-0.02,0.39-0.06,0.79-0.12,1.18c-0.06,0.39-0.13,0.59-0.23,0.59c-0.11,0-0.17-0.03-0.17-0.1c0-0.03,0.01-0.11,0.03-0.26
			c0.02-0.15,0.03-0.23,0.03-0.25c0-0.33-0.2-0.55-0.6-0.64c-0.4-0.09-0.88-0.14-1.44-0.14c-0.67,0-1.37,0.05-2.1,0.14
			c-0.08,0.76-0.12,1.4-0.12,1.91c0,0.34,0,0.73,0.01,1.16c0,0.44,0.01,0.64,0.01,0.62c0.11,0.01,0.45,0.01,1.01,0.01
			c0.97,0,1.63-0.02,1.99-0.05c0.21-0.02,0.34-0.05,0.41-0.08c0.07-0.03,0.14-0.11,0.2-0.24c0.06-0.13,0.13-0.33,0.21-0.6l0.2,0.01
			c0,0.48,0,0.9,0,1.27c0,0.37-0.01,0.8-0.01,1.29h-0.24c-0.01-0.42-0.08-0.71-0.19-0.88s-0.33-0.27-0.65-0.32
			c-0.32-0.05-0.89-0.07-1.71-0.07c-0.53,0-0.94,0.02-1.23,0.07l-0.03,0.97c-0.03,1.19,0.01,2.1,0.12,2.75
			c0.08,0.02,0.18,0.05,0.29,0.08c0.11,0.03,0.22,0.05,0.32,0.07c0.1,0.02,0.25,0.03,0.44,0.05c0.19,0.02,0.43,0.02,0.72,0.02
			c0.72,0,1.28-0.05,1.69-0.16c0.41-0.11,0.72-0.27,0.94-0.51C28.17,19.17,28.35,18.83,28.51,18.39z M24.41,10.93l1.35-2.44h0.95
			l-1.97,2.44H24.41z"/>
	</g>
</g>
</svg>
