<?xml version="1.0" encoding="utf-8"?>
<!-- Generator: Adobe Illustrator 25.4.1, SVG Export Plug-In . SVG Version: 6.00 Build 0)  -->
<svg version="1.1" id="Layer_1" xmlns="http://www.w3.org/2000/svg" xmlns:xlink="http://www.w3.org/1999/xlink" x="0px" y="0px"
	 viewBox="0 0 14400 14400" style="enable-background:new 0 0 14400 14400;" xml:space="preserve">
<g>
	<path d="M7182.52,7211.36h-7.81c-1.59,0-3.19,0.06-4.78,0.18c0.01-0.06,0.02-0.12,0.02-0.17c0.01-0.05,0.01-0.12,0.01-0.2
		c1.31-1.35,2.64-2.79,3.97-4.31c1.34-1.52,2.54-2.95,3.6-4.29c1.06-1.34,2.25-2.89,3.56-4.65c1.31-1.77,2.49-3.43,3.54-4.98
		c-0.74-0.04-1.6-0.07-2.58-0.09c-0.98-0.02-2.06-0.03-3.22-0.03c-2.22,0-3.82,0.06-4.81,0.19c-0.98,0.13-1.72,0.38-2.21,0.76
		c-0.49,0.38-0.94,1.02-1.35,1.91l-0.44-0.23c0.13-0.39,0.24-0.78,0.34-1.16c0.1-0.38,0.17-0.67,0.21-0.86
		c0.04-0.2,0.08-0.33,0.1-0.42l0.32-1.47c0.03-0.12,0.06-0.21,0.09-0.27s0.08-0.09,0.15-0.09c0.07,0,0.15,0.05,0.23,0.15
		c0.19,0.33,0.55,0.52,1.07,0.57c0.31,0.05,0.64,0.08,0.99,0.1c0.35,0.01,0.74,0.02,1.18,0.03c0.44,0.01,1.17,0.01,2.2,0.01
		c3.78,0,7.54-0.05,11.28-0.15v0.27c-0.74,0.98-1.32,1.75-1.76,2.31c-0.44,0.56-0.97,1.23-1.6,2.01c-0.63,0.78-1.12,1.39-1.48,1.83
		c-0.36,0.44-0.58,0.71-0.67,0.82l-3.38,4.28c-0.15,0.16-0.54,0.67-1.18,1.51c-0.26,0.3-0.56,0.66-0.9,1.08
		c-0.34,0.42-0.7,0.88-1.09,1.37c-0.39,0.49-0.77,0.98-1.16,1.47c-0.38,0.48-0.79,0.98-1.23,1.5c0.96,0.19,2.29,0.29,4,0.29
		c2.44,0,4.21-0.07,5.29-0.21c1.08-0.14,2.1-0.4,3.05-0.79c0.66-0.26,1.14-0.56,1.45-0.88c0.31-0.33,0.6-0.83,0.85-1.52l0.45,0.27
		c-0.17,0.41-0.47,1.16-0.91,2.24c-0.43,1.08-0.73,1.79-0.88,2.13c-0.13,0-0.23-0.01-0.29-0.03c-0.02-0.18-0.25-0.31-0.7-0.39
		C7185.62,7211.4,7184.44,7211.36,7182.52,7211.36z"/>
	<path d="M7190.15,7201.6c0-1.84,0.49-3.53,1.46-5.09c0.97-1.55,2.27-2.79,3.88-3.69c1.61-0.91,3.32-1.36,5.13-1.36
		c1.23,0,2.45,0.24,3.65,0.73c1.2,0.48,2.28,1.16,3.22,2.04c0.95,0.87,1.71,1.94,2.27,3.2c0.57,1.26,0.85,2.63,0.85,4.12
		c0,1.81-0.45,3.5-1.35,5.06c-0.9,1.57-2.15,2.82-3.75,3.75c-1.6,0.93-3.41,1.39-5.43,1.39c-1.54,0-2.94-0.3-4.18-0.91
		s-2.3-1.42-3.17-2.45c-0.87-1.03-1.52-2.13-1.95-3.31C7190.36,7203.89,7190.15,7202.74,7190.15,7201.6z M7192.4,7200.45
		c0,1.77,0.41,3.44,1.24,5.01c0.83,1.57,1.94,2.83,3.33,3.78c1.39,0.94,2.87,1.42,4.42,1.42c1.15,0,2.25-0.29,3.31-0.86
		s1.92-1.45,2.6-2.64c0.68-1.19,1.01-2.66,1.01-4.41c0-1.39-0.22-2.71-0.67-3.97c-0.45-1.25-1.07-2.35-1.88-3.29
		c-0.8-0.94-1.73-1.67-2.78-2.19c-1.05-0.52-2.16-0.78-3.31-0.78c-1.27,0-2.46,0.32-3.57,0.95c-1.11,0.63-2,1.55-2.68,2.76
		C7192.74,7197.43,7192.4,7198.84,7192.4,7200.45z"/>
	<path d="M7228.09,7206.92h0.47c-0.16,1.05-0.34,1.92-0.53,2.61c-0.19,0.69-0.44,1.35-0.74,1.98c-0.33-0.03-0.79-0.05-1.36-0.07
		c-0.58-0.01-1.38-0.02-2.42-0.02c-0.63,0-1.3-0.01-2.01-0.03c-0.72-0.02-1.02-0.03-0.92-0.03c-0.66,0-1.42,0.01-2.29,0.02
		c-0.87,0.02-1.92,0.04-3.16,0.08c-1.23,0.04-2.13,0.08-2.71,0.11l0.03-0.51c0.31-0.07,0.63-0.15,0.96-0.23s0.55-0.18,0.66-0.28
		s0.2-0.22,0.25-0.37c0.05-0.15,0.1-0.41,0.15-0.79c0.06-0.38,0.12-1.08,0.17-2.08c0.05-1,0.1-2.13,0.14-3.38s0.05-2.03,0.04-2.35
		l-0.11-4.81c-0.03-1.49-0.09-2.5-0.17-3.03c-0.09-0.52-0.25-0.87-0.49-1.04c-0.24-0.17-0.7-0.32-1.38-0.45
		c0-0.16,0.01-0.29,0.03-0.39h9.7c1.09,0,2.74-0.04,4.94-0.12c-0.05,0.87-0.14,1.74-0.27,2.6c-0.13,0.87-0.3,1.3-0.5,1.3
		c-0.25,0-0.38-0.08-0.38-0.23c0-0.06,0.02-0.25,0.06-0.58c0.04-0.32,0.06-0.51,0.06-0.56c0-0.74-0.44-1.21-1.33-1.41
		c-0.88-0.2-1.94-0.3-3.17-0.3c-1.48,0-3.03,0.1-4.65,0.3c-0.18,1.68-0.27,3.08-0.27,4.22c0,0.75,0.01,1.6,0.02,2.57
		s0.02,1.42,0.02,1.36c0.24,0.02,0.98,0.03,2.22,0.03c2.14,0,3.61-0.04,4.4-0.12c0.46-0.05,0.76-0.11,0.92-0.18
		c0.16-0.07,0.31-0.25,0.45-0.54c0.14-0.29,0.3-0.73,0.47-1.32l0.44,0.03c0,1.05,0,1.99-0.01,2.81c-0.01,0.83-0.01,1.78-0.02,2.85
		h-0.53c-0.03-0.93-0.17-1.57-0.42-1.94c-0.25-0.36-0.72-0.59-1.43-0.7c-0.71-0.1-1.96-0.15-3.77-0.15c-1.16,0-2.07,0.05-2.72,0.15
		l-0.06,2.15c-0.07,2.62,0.02,4.65,0.27,6.07c0.18,0.05,0.4,0.11,0.65,0.17s0.49,0.11,0.72,0.14s0.55,0.07,0.98,0.11
		c0.42,0.04,0.95,0.05,1.59,0.05c1.58,0,2.82-0.12,3.73-0.35c0.9-0.23,1.59-0.61,2.07-1.12S7227.75,7207.89,7228.09,7206.92z
		 M7219.04,7190.44l2.98-5.39h2.1l-4.36,5.39H7219.04z"/>
</g>
</svg>
