<?xml version="1.0" encoding="utf-8"?>
<!-- Generator: Adobe Illustrator 26.0.3, SVG Export Plug-In . SVG Version: 6.00 Build 0)  -->
<svg xmlns="http://www.w3.org/2000/svg" width="32" height="32" viewBox="0 0 300 300">
<style type="text/css">
	.st0{fill:#040000;stroke:#FFFFFF;stroke-width:0.25;stroke-miterlimit:10;}
	.st1{fill:#FFFFFF;}
</style>
<rect x="194.56" y="169.61" class="st0" width="100" height="100"/>
<rect x="191.91" y="167" class="st1" width="100" height="100"/>
<g>
	<path d="M217.2,232.41h-11.34c-2.31,0-4.63,0.09-6.94,0.26c0.01-0.09,0.03-0.17,0.03-0.24c0.01-0.07,0.01-0.17,0.01-0.29
		c1.9-1.96,3.83-4.05,5.77-6.26c1.94-2.21,3.68-4.29,5.23-6.23c1.55-1.94,3.27-4.19,5.16-6.76c1.9-2.56,3.61-4.97,5.13-7.23
		c-1.07-0.06-2.32-0.1-3.75-0.13s-2.98-0.04-4.67-0.04c-3.22,0-5.55,0.09-6.98,0.27c-1.43,0.18-2.5,0.55-3.21,1.11
		c-0.71,0.56-1.37,1.48-1.97,2.77l-0.64-0.33c0.19-0.57,0.35-1.13,0.49-1.68c0.14-0.55,0.24-0.97,0.31-1.25
		c0.07-0.29,0.11-0.49,0.14-0.6l0.46-2.13c0.04-0.18,0.09-0.31,0.13-0.4s0.12-0.13,0.22-0.13s0.21,0.07,0.33,0.22
		c0.28,0.48,0.8,0.75,1.56,0.83c0.45,0.07,0.93,0.12,1.44,0.14c0.5,0.02,1.08,0.03,1.71,0.04c0.64,0.01,1.7,0.02,3.2,0.02
		c5.49,0,10.95-0.07,16.37-0.22v0.4c-1.07,1.42-1.92,2.54-2.56,3.35c-0.64,0.81-1.41,1.79-2.32,2.92s-1.62,2.02-2.14,2.66
		c-0.52,0.64-0.85,1.04-0.98,1.2l-4.9,6.22c-0.22,0.23-0.79,0.97-1.71,2.2c-0.38,0.44-0.82,0.96-1.31,1.57
		c-0.49,0.61-1.02,1.27-1.58,1.99c-0.56,0.72-1.12,1.43-1.68,2.13s-1.15,1.43-1.78,2.18c1.39,0.28,3.33,0.42,5.8,0.42
		c3.54,0,6.1-0.1,7.68-0.31c1.57-0.21,3.05-0.59,4.43-1.14c0.95-0.38,1.66-0.81,2.11-1.29c0.45-0.48,0.86-1.21,1.23-2.21l0.66,0.4
		c-0.25,0.6-0.69,1.68-1.32,3.25s-1.05,2.6-1.27,3.1c-0.19,0-0.33-0.01-0.42-0.04c-0.03-0.26-0.37-0.45-1.01-0.56
		C221.7,232.47,219.99,232.41,217.2,232.41z"/>
	<path d="M228.28,218.24c0-2.67,0.71-5.13,2.12-7.38s3.29-4.04,5.64-5.36s4.83-1.98,7.45-1.98c1.79,0,3.55,0.35,5.3,1.05
		s3.3,1.69,4.68,2.96s2.48,2.82,3.3,4.65s1.23,3.82,1.23,5.98c0,2.62-0.65,5.07-1.96,7.35s-3.12,4.09-5.44,5.44
		c-2.32,1.35-4.95,2.02-7.88,2.02c-2.24,0-4.26-0.44-6.06-1.32s-3.34-2.07-4.6-3.56c-1.27-1.49-2.21-3.09-2.83-4.8
		C228.59,221.58,228.28,219.89,228.28,218.24z M231.55,216.57c0,2.56,0.6,4.99,1.8,7.27s2.81,4.11,4.83,5.48s4.16,2.05,6.42,2.05
		c1.67,0,3.27-0.41,4.8-1.24c1.53-0.83,2.79-2.11,3.77-3.83s1.47-3.86,1.47-6.39c0-2.02-0.33-3.94-0.98-5.76
		c-0.65-1.82-1.56-3.41-2.72-4.78c-1.17-1.37-2.51-2.43-4.03-3.19c-1.52-0.75-3.13-1.13-4.81-1.13c-1.85,0-3.57,0.46-5.19,1.37
		s-2.91,2.25-3.89,4.01S231.55,214.24,231.55,216.57z"/>
	<path d="M283.36,225.97h0.68c-0.23,1.52-0.49,2.79-0.77,3.79s-0.64,1.96-1.08,2.87c-0.48-0.04-1.14-0.08-1.98-0.1
		c-0.83-0.02-2.01-0.03-3.52-0.03c-0.91,0-1.88-0.01-2.92-0.04s-1.49-0.04-1.34-0.04c-0.95,0-2.06,0.01-3.33,0.03
		c-1.27,0.02-2.79,0.06-4.58,0.12s-3.1,0.11-3.93,0.15l0.04-0.75c0.46-0.1,0.92-0.22,1.39-0.34c0.47-0.12,0.79-0.26,0.96-0.41
		s0.29-0.33,0.36-0.54c0.07-0.21,0.15-0.6,0.22-1.15c0.09-0.56,0.17-1.56,0.25-3.02s0.15-3.09,0.2-4.91
		c0.05-1.82,0.07-2.95,0.05-3.41l-0.15-6.99c-0.04-2.17-0.13-3.63-0.25-4.39c-0.12-0.76-0.36-1.27-0.71-1.52s-1.02-0.47-2-0.66
		c0-0.23,0.01-0.42,0.04-0.57h14.08c1.58,0,3.97-0.06,7.16-0.18c-0.07,1.26-0.21,2.52-0.4,3.78s-0.43,1.89-0.73,1.89
		c-0.37,0-0.55-0.11-0.55-0.33c0-0.09,0.03-0.37,0.09-0.83s0.09-0.74,0.09-0.81c0-1.07-0.64-1.75-1.92-2.04
		c-1.28-0.29-2.82-0.44-4.6-0.44c-2.15,0-4.4,0.15-6.75,0.44c-0.26,2.43-0.4,4.48-0.4,6.13c0,1.08,0.01,2.33,0.02,3.74
		s0.02,2.07,0.02,1.98c0.35,0.03,1.43,0.04,3.23,0.04c3.11,0,5.24-0.06,6.39-0.18c0.66-0.07,1.1-0.16,1.33-0.26
		c0.23-0.1,0.44-0.36,0.65-0.78c0.21-0.42,0.43-1.06,0.68-1.92l0.64,0.04c0,1.52,0,2.89-0.01,4.09s-0.02,2.58-0.03,4.13h-0.77
		c-0.04-1.35-0.25-2.29-0.6-2.81s-1.05-0.86-2.08-1.01s-2.85-0.22-5.47-0.22c-1.68,0-3,0.07-3.96,0.22l-0.09,3.12
		c-0.1,3.81,0.03,6.75,0.4,8.81c0.26,0.07,0.58,0.15,0.94,0.24s0.71,0.16,1.04,0.21c0.33,0.05,0.8,0.1,1.42,0.15
		c0.61,0.05,1.38,0.08,2.3,0.08c2.3,0,4.1-0.17,5.41-0.51c1.31-0.34,2.31-0.88,3.01-1.63C282.27,228.46,282.87,227.38,283.36,225.97
		z M270.22,202.05l4.33-7.82h3.05l-6.33,7.82H270.22z"/>
</g>
<g>
	<path d="M217.2,232.41h-11.34c-2.31,0-4.63,0.09-6.94,0.26c0.01-0.09,0.03-0.17,0.03-0.24c0.01-0.07,0.01-0.17,0.01-0.29
		c1.9-1.96,3.83-4.05,5.77-6.26c1.94-2.21,3.68-4.29,5.23-6.23c1.55-1.94,3.27-4.19,5.16-6.76c1.9-2.56,3.61-4.97,5.13-7.23
		c-1.07-0.06-2.32-0.1-3.75-0.13s-2.98-0.04-4.67-0.04c-3.22,0-5.55,0.09-6.98,0.27c-1.43,0.18-2.5,0.55-3.21,1.11
		c-0.71,0.56-1.37,1.48-1.97,2.77l-0.64-0.33c0.19-0.57,0.35-1.13,0.49-1.68c0.14-0.55,0.24-0.97,0.31-1.25
		c0.07-0.29,0.11-0.49,0.14-0.6l0.46-2.13c0.04-0.18,0.09-0.31,0.13-0.4s0.12-0.13,0.22-0.13s0.21,0.07,0.33,0.22
		c0.28,0.48,0.8,0.75,1.56,0.83c0.45,0.07,0.93,0.12,1.44,0.14c0.5,0.02,1.08,0.03,1.71,0.04c0.64,0.01,1.7,0.02,3.2,0.02
		c5.49,0,10.95-0.07,16.37-0.22v0.4c-1.07,1.42-1.92,2.54-2.56,3.35c-0.64,0.81-1.41,1.79-2.32,2.92s-1.62,2.02-2.14,2.66
		c-0.52,0.64-0.85,1.04-0.98,1.2l-4.9,6.22c-0.22,0.23-0.79,0.97-1.71,2.2c-0.38,0.44-0.82,0.96-1.31,1.57
		c-0.49,0.61-1.02,1.27-1.58,1.99c-0.56,0.72-1.12,1.43-1.68,2.13s-1.15,1.43-1.78,2.18c1.39,0.28,3.33,0.42,5.8,0.42
		c3.54,0,6.1-0.1,7.68-0.31c1.57-0.21,3.05-0.59,4.43-1.14c0.95-0.38,1.66-0.81,2.11-1.29c0.45-0.48,0.86-1.21,1.23-2.21l0.66,0.4
		c-0.25,0.6-0.69,1.68-1.32,3.25s-1.05,2.6-1.27,3.1c-0.19,0-0.33-0.01-0.42-0.04c-0.03-0.26-0.37-0.45-1.01-0.56
		C221.7,232.47,219.99,232.41,217.2,232.41z"/>
	<path d="M228.28,218.24c0-2.67,0.71-5.13,2.12-7.38s3.29-4.04,5.64-5.36s4.83-1.98,7.45-1.98c1.79,0,3.55,0.35,5.3,1.05
		s3.3,1.69,4.68,2.96s2.48,2.82,3.3,4.65s1.23,3.82,1.23,5.98c0,2.62-0.65,5.07-1.96,7.35s-3.12,4.09-5.44,5.44
		c-2.32,1.35-4.95,2.02-7.88,2.02c-2.24,0-4.26-0.44-6.06-1.32s-3.34-2.07-4.6-3.56c-1.27-1.49-2.21-3.09-2.83-4.8
		C228.59,221.58,228.28,219.89,228.28,218.24z M231.55,216.57c0,2.56,0.6,4.99,1.8,7.27s2.81,4.11,4.83,5.48s4.16,2.05,6.42,2.05
		c1.67,0,3.27-0.41,4.8-1.24c1.53-0.83,2.79-2.11,3.77-3.83s1.47-3.86,1.47-6.39c0-2.02-0.33-3.94-0.98-5.76
		c-0.65-1.82-1.56-3.41-2.72-4.78c-1.17-1.37-2.51-2.43-4.03-3.19c-1.52-0.75-3.13-1.13-4.81-1.13c-1.85,0-3.57,0.46-5.19,1.37
		s-2.91,2.25-3.89,4.01S231.55,214.24,231.55,216.57z"/>
	<path d="M283.36,225.97h0.68c-0.23,1.52-0.49,2.79-0.77,3.79s-0.64,1.96-1.08,2.87c-0.48-0.04-1.14-0.08-1.98-0.1
		c-0.83-0.02-2.01-0.03-3.52-0.03c-0.91,0-1.88-0.01-2.92-0.04s-1.49-0.04-1.34-0.04c-0.95,0-2.06,0.01-3.33,0.03
		c-1.27,0.02-2.79,0.06-4.58,0.12s-3.1,0.11-3.93,0.15l0.04-0.75c0.46-0.1,0.92-0.22,1.39-0.34c0.47-0.12,0.79-0.26,0.96-0.41
		s0.29-0.33,0.36-0.54c0.07-0.21,0.15-0.6,0.22-1.15c0.09-0.56,0.17-1.56,0.25-3.02s0.15-3.09,0.2-4.91
		c0.05-1.82,0.07-2.95,0.05-3.41l-0.15-6.99c-0.04-2.17-0.13-3.63-0.25-4.39c-0.12-0.76-0.36-1.27-0.71-1.52s-1.02-0.47-2-0.66
		c0-0.23,0.01-0.42,0.04-0.57h14.08c1.58,0,3.97-0.06,7.16-0.18c-0.07,1.26-0.21,2.52-0.4,3.78s-0.43,1.89-0.73,1.89
		c-0.37,0-0.55-0.11-0.55-0.33c0-0.09,0.03-0.37,0.09-0.83s0.09-0.74,0.09-0.81c0-1.07-0.64-1.75-1.92-2.04
		c-1.28-0.29-2.82-0.44-4.6-0.44c-2.15,0-4.4,0.15-6.75,0.44c-0.26,2.43-0.4,4.48-0.4,6.13c0,1.08,0.01,2.33,0.02,3.74
		s0.02,2.07,0.02,1.98c0.35,0.03,1.43,0.04,3.23,0.04c3.11,0,5.24-0.06,6.39-0.18c0.66-0.07,1.1-0.16,1.33-0.26
		c0.23-0.1,0.44-0.36,0.65-0.78c0.21-0.42,0.43-1.06,0.68-1.92l0.64,0.04c0,1.52,0,2.89-0.01,4.09s-0.02,2.58-0.03,4.13h-0.77
		c-0.04-1.35-0.25-2.29-0.6-2.81s-1.05-0.86-2.08-1.01s-2.85-0.22-5.47-0.22c-1.68,0-3,0.07-3.96,0.22l-0.09,3.12
		c-0.1,3.81,0.03,6.75,0.4,8.81c0.26,0.07,0.58,0.15,0.94,0.24s0.71,0.16,1.04,0.21c0.33,0.05,0.8,0.1,1.42,0.15
		c0.61,0.05,1.38,0.08,2.3,0.08c2.3,0,4.1-0.17,5.41-0.51c1.31-0.34,2.31-0.88,3.01-1.63C282.27,228.46,282.87,227.38,283.36,225.97
		z M270.22,202.05l4.33-7.82h3.05l-6.33,7.82H270.22z"/>
</g>
</svg>
